  0
SECTION
  2
HEADER
  9
$ACADVER
  1
AC1006
  0
ENDSEC
  0
SECTION
  2
TABLES
  0
TABLE
  2
LTYPE
 70
    9
  0
LTYPE
  2
CONTINUOUS
 70
   64
  3
SOLID
 72
   65
 73
    0
 40
0.0
  0
LTYPE
  2
DASHED
 70
   64
  3
_ _ _ _ _ _ _ _ _ _ _ _ _ _ _ _ _ _ _ _ _ _ _
 72
   65
 73
    2
 40
4.0
 49
3.0
 49
-1.0
  0
LTYPE
  2
DOT
 70
   64
  3
...............................................
 72
   65
 73
    2
 40
2.0
 49
1.0
 49
-1.0
  0
LTYPE
  2
DASHDOT
 70
   64
  3
____ _ ____ _ ____ _ ____ _ ____ _ ____ _ ____
 72
   65
 73
    4
 40
8.0
 49
5.0
 49
-1.0
 49
1.0
 49
-1.0
  0
LTYPE
  2
DIVIDE
 70
   64
  3
_____ _ _ _____ _ _ _____ _ _ _____ _ _ ____
 72
   65
 73
    6
 40
10.0
 49
5.0
 49
-1.0
 49
1.0
 49
-1.0
 49
1.0
 49
-1.0
  0
ENDTAB
  0
TABLE
  2
LAYER
 70
    2
  0
LAYER
  2
NULL
 70
   64
 62
    7
  6
CONTINUOUS
  0
LAYER
  2
Layer0
 70
   64
 62
    7
  6
CONTINUOUS
  0
ENDTAB
  0
ENDSEC
  0
SECTION
  2
ENTITIES
  0
ARC
  8
Layer0
  6
CONTINUOUS
 62
8
 10
90.000000000000
 20
0.000000000000
 40
5.000000000000
 50
-90.000000000000
 51
0.000000000000
  0
LINE
  8
Layer0
  6
CONTINUOUS
 62
8
 10
95.000000000000
 20
0.000000000000
 11
95.000000000000
 21
90.000000000000
  0
ARC
  8
Layer0
  6
CONTINUOUS
 62
8
 10
90.000000000000
 20
90.000000000000
 40
5.000000000000
 50
0.000000000000
 51
90.000000000000
  0
ARC
  8
Layer0
  6
CONTINUOUS
 62
8
 10
90.000000000000
 20
90.000000000000
 40
5.000000000000
 50
0.000000000000
 51
90.000000000000
  0
ARC
  8
Layer0
  6
CONTINUOUS
 62
8
 10
90.000000000000
 20
-0.000000000000
 40
5.000000000000
 50
-90.000000000000
 51
0.000000000000
  0
LINE
  8
Layer0
  6
CONTINUOUS
 62
8
 10
0.000000000000
 20
95.000000000000
 11
90.000000000000
 21
95.000000000000
  0
LINE
  8
Layer0
  6
CONTINUOUS
 62
8
 10
0.000000000000
 20
-5.000000000000
 11
90.000000000000
 21
-5.000000000000
  0
ARC
  8
Layer0
  6
CONTINUOUS
 62
8
 10
0.000000000000
 20
0.000000000000
 40
5.000000000000
 50
180.000000000000
 51
270.000000000000
  0
LINE
  8
Layer0
  6
CONTINUOUS
 62
8
 10
-5.000000000000
 20
0.000000000000
 11
-5.000000000000
 21
90.000000000000
  0
ARC
  8
Layer0
  6
CONTINUOUS
 62
8
 10
0.000000000000
 20
90.000000000000
 40
5.000000000000
 50
90.000000000000
 51
180.000000000000
  0
ARC
  8
Layer0
  6
CONTINUOUS
 62
8
 10
0.000000000000
 20
90.000000000000
 40
5.000000000000
 50
90.000000000000
 51
180.000000000000
  0
ARC
  8
Layer0
  6
CONTINUOUS
 62
8
 10
0.000000000000
 20
0.000000000000
 40
5.000000000000
 50
-180.000000000000
 51
-90.000000000000
  0
ARC
  8
Layer0
  6
CONTINUOUS
 62
8
 10
85.000000000000
 20
90.000000000000
 40
1.000000000000
 50
-90.000000000000
 51
90.000000000000
  0
LINE
  8
Layer0
  6
CONTINUOUS
 62
8
 10
5.000000000000
 20
91.000000000000
 11
85.000000000000
 21
91.000000000000
  0
ARC
  8
Layer0
  6
CONTINUOUS
 62
8
 10
5.000000000000
 20
90.000000000000
 40
1.000000000000
 50
90.000000000000
 51
270.000000000000
  0
ARC
  8
Layer0
  6
CONTINUOUS
 62
8
 10
85.000000000000
 20
0.000000000000
 40
1.000000000000
 50
-90.000000000000
 51
90.000000000000
  0
LINE
  8
Layer0
  6
CONTINUOUS
 62
8
 10
5.000000000000
 20
-1.000000000000
 11
85.000000000000
 21
-1.000000000000
  0
ARC
  8
Layer0
  6
CONTINUOUS
 62
8
 10
5.000000000000
 20
0.000000000000
 40
1.000000000000
 50
90.000000000000
 51
270.000000000000
  0
ARC
  8
Layer0
  6
CONTINUOUS
 62
8
 10
90.000000000000
 20
5.000000000000
 40
1.000000000000
 50
-180.000000000000
 51
0.000000000000
  0
LINE
  8
Layer0
  6
CONTINUOUS
 62
8
 10
91.000000000000
 20
85.000000000000
 11
91.000000000000
 21
5.000000000000
  0
ARC
  8
Layer0
  6
CONTINUOUS
 62
8
 10
90.000000000000
 20
85.000000000000
 40
1.000000000000
 50
0.000000000000
 51
180.000000000000
  0
ARC
  8
Layer0
  6
CONTINUOUS
 62
8
 10
0.000000000000
 20
5.000000000000
 40
1.000000000000
 50
-180.000000000000
 51
0.000000000000
  0
LINE
  8
Layer0
  6
CONTINUOUS
 62
8
 10
-1.000000000000
 20
85.000000000000
 11
-1.000000000000
 21
5.000000000000
  0
ARC
  8
Layer0
  6
CONTINUOUS
 62
8
 10
0.000000000000
 20
85.000000000000
 40
1.000000000000
 50
0.000000000000
 51
180.000000000000
  0
LINE
  8
Layer0
  6
CONTINUOUS
 62
8
 10
46.000000000000
 20
85.000000000000
 11
46.000000000000
 21
46.000000000000
  0
LINE
  8
Layer0
  6
CONTINUOUS
 62
8
 10
44.000000000000
 20
85.000000000000
 11
44.000000000000
 21
46.000000000000
  0
LINE
  8
Layer0
  6
CONTINUOUS
 62
8
 10
5.000000000000
 20
44.000000000000
 11
44.000000000000
 21
44.000000000000
  0
LINE
  8
Layer0
  6
CONTINUOUS
 62
8
 10
5.000000000000
 20
46.000000000000
 11
44.000000000000
 21
46.000000000000
  0
LINE
  8
Layer0
  6
CONTINUOUS
 62
8
 10
46.000000000000
 20
46.000000000000
 11
85.000000000000
 21
46.000000000000
  0
LINE
  8
Layer0
  6
CONTINUOUS
 62
8
 10
44.000000000000
 20
44.000000000000
 11
44.000000000000
 21
5.000000000000
  0
LINE
  8
Layer0
  6
CONTINUOUS
 62
8
 10
46.000000000000
 20
44.000000000000
 11
46.000000000000
 21
5.000000000000
  0
LINE
  8
Layer0
  6
CONTINUOUS
 62
8
 10
46.000000000000
 20
44.000000000000
 11
85.000000000000
 21
44.000000000000
  0
ARC
  8
Layer0
  6
CONTINUOUS
 62
8
 10
48.535533905933
 20
3.535533905933
 40
1.000000000000
 50
135.000000000000
 51
314.999999999999
  0
ARC
  8
Layer0
  6
CONTINUOUS
 62
8
 10
45.000000000000
 20
5.000000000000
 40
1.000000000000
 50
-180.000000000000
 51
0.000000000000
  0
ARC
  8
Layer0
  6
CONTINUOUS
 62
8
 10
86.464466094067
 20
41.464466094067
 40
1.000000000000
 50
-45.000000000000
 51
135.000000000000
  0
ARC
  8
Layer0
  6
CONTINUOUS
 62
8
 10
85.000000000000
 20
45.000000000000
 40
1.000000000000
 50
-90.000000000000
 51
90.000000000000
  0
LINE
  8
Layer0
  6
CONTINUOUS
 62
8
 10
87.171572875254
 20
40.757359312881
 11
49.242640687119
 21
2.828427124746
  0
LINE
  8
Layer0
  6
CONTINUOUS
 62
8
 10
85.757359312881
 20
42.171572875254
 11
47.828427124746
 21
4.242640687119
  0
LINE
  8
Layer0
  6
CONTINUOUS
 62
8
 10
5.000000000000
 20
89.000000000000
 11
85.000000000000
 21
89.000000000000
  0
LINE
  8
Layer0
  6
CONTINUOUS
 62
8
 10
1.000000000000
 20
85.000000000000
 11
1.000000000000
 21
5.000000000000
  0
ARC
  8
Layer0
  6
CONTINUOUS
 62
8
 10
48.535533905933
 20
86.464466094067
 40
1.000000000000
 50
45.000000000001
 51
225.000000000000
  0
ARC
  8
Layer0
  6
CONTINUOUS
 62
8
 10
86.464466094067
 20
48.535533905933
 40
1.000000000000
 50
-135.000000000000
 51
45.000000000000
  0
LINE
  8
Layer0
  6
CONTINUOUS
 62
8
 10
87.171572875254
 20
49.242640687119
 11
49.242640687119
 21
87.171572875254
  0
LINE
  8
Layer0
  6
CONTINUOUS
 62
8
 10
85.757359312881
 20
47.828427124746
 11
47.828427124746
 21
85.757359312881
  0
ARC
  8
Layer0
  6
CONTINUOUS
 62
8
 10
41.464466094067
 20
3.535533905933
 40
1.000000000000
 50
-134.999999999999
 51
45.000000000000
  0
ARC
  8
Layer0
  6
CONTINUOUS
 62
8
 10
3.535533905933
 20
41.464466094067
 40
1.000000000000
 50
45.000000000000
 51
225.000000000000
  0
LINE
  8
Layer0
  6
CONTINUOUS
 62
8
 10
2.828427124746
 20
40.757359312881
 11
40.757359312881
 21
2.828427124746
  0
LINE
  8
Layer0
  6
CONTINUOUS
 62
8
 10
4.242640687119
 20
42.171572875254
 11
42.171572875254
 21
4.242640687119
  0
ARC
  8
Layer0
  6
CONTINUOUS
 62
8
 10
41.464466094067
 20
86.464466094067
 40
1.000000000000
 50
-45.000000000000
 51
135.000000000000
  0
ARC
  8
Layer0
  6
CONTINUOUS
 62
8
 10
3.535533905933
 20
48.535533905933
 40
1.000000000000
 50
-225.000000000000
 51
-45.000000000000
  0
LINE
  8
Layer0
  6
CONTINUOUS
 62
8
 10
2.828427124746
 20
49.242640687119
 11
40.757359312881
 21
87.171572875254
  0
LINE
  8
Layer0
  6
CONTINUOUS
 62
8
 10
4.242640687119
 20
47.828427124746
 11
42.171572875254
 21
85.757359312881
  0
ARC
  8
Layer0
  6
CONTINUOUS
 62
8
 10
45.000000000000
 20
85.000000000000
 40
1.000000000000
 50
0.000000000000
 51
180.000000000000
  0
ARC
  8
Layer0
  6
CONTINUOUS
 62
8
 10
5.000000000000
 20
45.000000000000
 40
1.000000000000
 50
90.000000000000
 51
270.000000000000
  0
LINE
  8
Layer0
  6
CONTINUOUS
 62
8
 10
89.000000000000
 20
85.000000000000
 11
89.000000000000
 21
5.000000000000
  0
LINE
  8
Layer0
  6
CONTINUOUS
 62
8
 10
85.000000000000
 20
1.000000000000
 11
5.000000000000
 21
1.000000000000
  0
LINE
  8
Layer0
  6
CONTINUOUS
 62
8
 10
50.000000000000
 20
50.000000000000
 11
77.928932188135
 21
50.000000000000
  0
LINE
  8
Layer0
  6
CONTINUOUS
 62
8
 10
50.000000000000
 20
50.000000000000
 11
50.000000000000
 21
77.928932188135
  0
LINE
  8
Layer0
  6
CONTINUOUS
 62
8
 10
77.928932188135
 20
50.000000000000
 11
50.000000000000
 21
77.928932188135
  0
LINE
  8
Layer0
  6
CONTINUOUS
 62
8
 10
85.000000000000
 20
85.000000000000
 11
85.000000000000
 21
57.071067811865
  0
LINE
  8
Layer0
  6
CONTINUOUS
 62
8
 10
85.000000000000
 20
5.000000000000
 11
57.071067811865
 21
5.000000000000
  0
LINE
  8
Layer0
  6
CONTINUOUS
 62
8
 10
85.000000000000
 20
57.071067811865
 11
57.071067811865
 21
85.000000000000
  0
LINE
  8
Layer0
  6
CONTINUOUS
 62
8
 10
50.000000000000
 20
40.000000000000
 11
77.928932188135
 21
40.000000000000
  0
LINE
  8
Layer0
  6
CONTINUOUS
 62
8
 10
50.000000000000
 20
40.000000000000
 11
50.000000000000
 21
12.071067811865
  0
LINE
  8
Layer0
  6
CONTINUOUS
 62
8
 10
77.928932188135
 20
40.000000000000
 11
50.000000000000
 21
12.071067811865
  0
LINE
  8
Layer0
  6
CONTINUOUS
 62
8
 10
85.000000000000
 20
5.000000000000
 11
85.000000000000
 21
32.928932188135
  0
LINE
  8
Layer0
  6
CONTINUOUS
 62
8
 10
85.000000000000
 20
32.928932188135
 11
57.071067811865
 21
5.000000000000
  0
LINE
  8
Layer0
  6
CONTINUOUS
 62
8
 10
40.000000000000
 20
50.000000000000
 11
12.071067811865
 21
50.000000000000
  0
LINE
  8
Layer0
  6
CONTINUOUS
 62
8
 10
40.000000000000
 20
50.000000000000
 11
40.000000000000
 21
77.928932188135
  0
LINE
  8
Layer0
  6
CONTINUOUS
 62
8
 10
12.071067811865
 20
50.000000000000
 11
40.000000000000
 21
77.928932188135
  0
LINE
  8
Layer0
  6
CONTINUOUS
 62
8
 10
5.000000000000
 20
85.000000000000
 11
5.000000000000
 21
57.071067811865
  0
LINE
  8
Layer0
  6
CONTINUOUS
 62
8
 10
5.000000000000
 20
5.000000000000
 11
32.928932188135
 21
5.000000000000
  0
LINE
  8
Layer0
  6
CONTINUOUS
 62
8
 10
5.000000000000
 20
57.071067811865
 11
32.928932188135
 21
85.000000000000
  0
LINE
  8
Layer0
  6
CONTINUOUS
 62
8
 10
40.000000000000
 20
40.000000000000
 11
12.071067811865
 21
40.000000000000
  0
LINE
  8
Layer0
  6
CONTINUOUS
 62
8
 10
40.000000000000
 20
40.000000000000
 11
40.000000000000
 21
12.071067811865
  0
LINE
  8
Layer0
  6
CONTINUOUS
 62
8
 10
12.071067811865
 20
40.000000000000
 11
40.000000000000
 21
12.071067811865
  0
LINE
  8
Layer0
  6
CONTINUOUS
 62
8
 10
5.000000000000
 20
5.000000000000
 11
5.000000000000
 21
32.928932188135
  0
LINE
  8
Layer0
  6
CONTINUOUS
 62
8
 10
5.000000000000
 20
32.928932188135
 11
32.928932188135
 21
5.000000000000
  0
LINE
  8
Layer0
  6
CONTINUOUS
 62
8
 10
5.000000000000
 20
85.000000000000
 11
32.928932188135
 21
85.000000000000
  0
LINE
  8
Layer0
  6
CONTINUOUS
 62
8
 10
57.071067811865
 20
85.000000000000
 11
85.000000000000
 21
85.000000000000
  0
CIRCLE
  8
Layer0
  6
CONTINUOUS
 62
8
 10
0.000000000000
 20
90.000000000000
 40
2.250000000000
  0
CIRCLE
  8
Layer0
  6
CONTINUOUS
 62
8
 10
0.000000000000
 20
0.000000000000
 40
2.250000000000
  0
CIRCLE
  8
Layer0
  6
CONTINUOUS
 62
8
 10
90.000000000000
 20
0.000000000000
 40
2.250000000000
  0
CIRCLE
  8
Layer0
  6
CONTINUOUS
 62
8
 10
90.000000000000
 20
90.000000000000
 40
2.250000000000
  0
ENDSEC
  0
EOF
